<svg width="20" height="20" viewBox="0 0 20 20" fill="none" xmlns="http://www.w3.org/2000/svg">
<path d="M18.9726 7.75391C18.5547 7.23047 17.9844 6.94141 17.3672 6.94141H15.957C15.8242 3.32422 13.2031 0.429688 9.99998 0.429688C6.79686 0.429688 4.17577 3.32422 4.04295 6.94141H2.6328C2.01561 6.94141 1.4453 7.23047 1.02733 7.75391C0.499985 8.41016 0.308578 9.32422 0.507797 10.2031L2.1992 17.6562C2.45311 18.7812 3.32811 19.5703 4.3242 19.5703H15.6719C16.668 19.5703 17.543 18.7852 17.7969 17.6562L19.4922 10.2031C19.6914 9.32422 19.5 8.41016 18.9726 7.75391ZM9.99998 2.02344C12.3281 2.02344 14.2344 4.20312 14.3594 6.94141H5.64061C5.76561 4.20703 7.67186 2.02344 9.99998 2.02344ZM17.9375 9.84766L16.2461 17.3047C16.1601 17.6875 15.914 17.9766 15.6758 17.9766H4.3242C4.08592 17.9766 3.83983 17.6875 3.75389 17.3047L2.06248 9.84766C1.97264 9.45312 1.91795 8.53516 2.6328 8.53516H17.3672C18.1367 8.53516 18.0273 9.45312 17.9375 9.84766Z" fill="#0D253E"/>
<path d="M6.04291 10.1211C5.6015 10.1211 5.24603 10.4766 5.24603 10.918V15.8984C5.24603 16.3398 5.6015 16.6953 6.04291 16.6953C6.48431 16.6953 6.83978 16.3398 6.83978 15.8984V10.918C6.84369 10.4805 6.48431 10.1211 6.04291 10.1211Z" fill="#0D253E"/>
<path d="M9.90625 10.1211C9.46484 10.1211 9.10938 10.4766 9.10938 10.918V15.8984C9.10938 16.3398 9.46484 16.6953 9.90625 16.6953C10.3477 16.6953 10.7031 16.3398 10.7031 15.8984V10.918C10.7031 10.4805 10.3438 10.1211 9.90625 10.1211Z" fill="#0D253E"/>
<path d="M13.7656 10.1211C13.3242 10.1211 12.9688 10.4766 12.9688 10.918V15.8984C12.9688 16.3398 13.3242 16.6953 13.7656 16.6953C14.207 16.6953 14.5625 16.3398 14.5625 15.8984V10.918C14.5625 10.4805 14.207 10.1211 13.7656 10.1211Z" fill="#0D253E"/>
</svg>
